<svg xmlns="http://www.w3.org/2000/svg" viewBox="0 0 710.81 618.1"><defs><style>.cls-1{fill:#231f20;}.cls-2{fill:none;stroke:#231f20;stroke-miterlimit:10;}</style></defs><g id="Layer_2" data-name="Layer 2"><g id="Layer_2-2" data-name="Layer 2"><path class="cls-1" d="M562.08,38l-.89.49A4.67,4.67,0,0,0,559.5,40a5.42,5.42,0,0,0-1.18,4.43,4.58,4.58,0,0,0,.71,2.23l.94,1.22a6.07,6.07,0,0,0,2.65,1.54l1.6.21a5.83,5.83,0,0,0,3-.82l.9-.48a4.56,4.56,0,0,0,1.68-1.55,4.58,4.58,0,0,0,1.08-2,4.52,4.52,0,0,0,.1-2.39,4.38,4.38,0,0,0-.71-2.23l-.94-1.22a5.94,5.94,0,0,0-2.64-1.54l-1.6-.21a6,6,0,0,0-3,.81Z"/><path class="cls-1" d="M492.23,75.9l-.89.47A6.69,6.69,0,0,0,488.58,80a4.52,4.52,0,0,0-.11,2.39,4.58,4.58,0,0,0,.71,2.23l.94,1.21a6,6,0,0,0,2.65,1.55l1.6.21a5.83,5.83,0,0,0,3-.82l.9-.47A4.53,4.53,0,0,0,500,84.72a5.33,5.33,0,0,0,1.18-4.44,4.38,4.38,0,0,0-.71-2.23l-.94-1.21a6,6,0,0,0-2.64-1.55l-1.6-.21a6,6,0,0,0-3,.82Z"/><path class="cls-1" d="M422.38,113.81l-.89.49a5.78,5.78,0,0,0-2.87,6,4.62,4.62,0,0,0,.71,2.24l.94,1.21a6,6,0,0,0,2.65,1.54l1.6.22a6,6,0,0,0,3-.82l.9-.49a4.48,4.48,0,0,0,1.68-1.55,5.32,5.32,0,0,0,1.18-4.43,4.38,4.38,0,0,0-.71-2.23l-.94-1.21A6,6,0,0,0,427,113.2l-1.6-.21a6,6,0,0,0-3,.82Z"/><path class="cls-1" d="M352.53,151.73l-.89.49a6.69,6.69,0,0,0-2.76,3.59,4.52,4.52,0,0,0-.11,2.39,4.58,4.58,0,0,0,.71,2.23l.94,1.22a6.07,6.07,0,0,0,2.65,1.54l1.6.21a5.83,5.83,0,0,0,3-.82l.9-.48a5.76,5.76,0,0,0,2.86-6,4.35,4.35,0,0,0-.71-2.23l-.94-1.22a5.94,5.94,0,0,0-2.64-1.54l-1.6-.22a6.09,6.09,0,0,0-3,.82Z"/><path class="cls-1" d="M562.08,265.49l-.89.49a6.69,6.69,0,0,0-2.76,3.59,4.52,4.52,0,0,0-.11,2.39,4.58,4.58,0,0,0,.71,2.23l.94,1.21a6,6,0,0,0,2.65,1.55l1.6.21a5.83,5.83,0,0,0,3-.82l.9-.49a4.45,4.45,0,0,0,1.68-1.54,4.58,4.58,0,0,0,1.08-2,4.52,4.52,0,0,0,.1-2.39,4.42,4.42,0,0,0-.71-2.24l-.94-1.21a5.94,5.94,0,0,0-2.64-1.54l-1.6-.22a6.09,6.09,0,0,0-3,.82Z"/><path class="cls-1" d="M492.23,303.42l-.89.49a5.78,5.78,0,0,0-2.87,6,4.62,4.62,0,0,0,.71,2.24l.94,1.21a6,6,0,0,0,2.65,1.54l1.6.22a6,6,0,0,0,3-.82l.9-.49a4.48,4.48,0,0,0,1.68-1.55,4.58,4.58,0,0,0,1.08-2,4.52,4.52,0,0,0,.1-2.39,4.38,4.38,0,0,0-.71-2.23l-.94-1.21a6,6,0,0,0-2.64-1.55l-1.6-.21a5.89,5.89,0,0,0-3,.82Z"/><path class="cls-1" d="M631.93,455.08l-.89.49a4.67,4.67,0,0,0-1.69,1.55,6.2,6.2,0,0,0-.47,6.66l.94,1.22a6.07,6.07,0,0,0,2.65,1.54l1.6.21a5.92,5.92,0,0,0,3-.81l.9-.49a5.76,5.76,0,0,0,2.86-6,4.38,4.38,0,0,0-.71-2.23L639.2,456a6,6,0,0,0-2.64-1.54l-1.6-.21a6,6,0,0,0-3,.81Z"/><path class="cls-1" d="M568.14,190.64l-.9-.49a4.35,4.35,0,0,0-2.23-.71,4.52,4.52,0,0,0-2.39.1A6.81,6.81,0,0,0,559,192.3l-.6,1.43a6,6,0,0,0,0,3.19l.6,1.44a6.09,6.09,0,0,0,2.16,2.15l.89.49a4.51,4.51,0,0,0,2.23.71,4.56,4.56,0,0,0,2.4-.11,4.47,4.47,0,0,0,2-1.07,4.64,4.64,0,0,0,1.54-1.69l.61-1.43a6.16,6.16,0,0,0,0-3.19l-.61-1.43a6,6,0,0,0-2.15-2.15Z"/><path class="cls-1" d="M700.89,38.46Q666.42,57.18,632,75.89c-23.21,12.61-46.39,25.28-69.63,37.81S516,138.82,492.84,151.4s-46.13,25-69.19,37.57-46,25-69,37.44l-3.05,1.66h6.05l-68.95-37.43,3,5.18v-1a6.06,6.06,0,0,0-9-5.18l-.89.49h6l-68.95-37.44,3,5.18v-1a6.06,6.06,0,0,0-9-5.18l-.89.49H218l-69-37.44,3,5.19v-1a6.06,6.06,0,0,0-9-5.18l-.89.49h6L79.19,76.88l3,5.18v-1a6.06,6.06,0,0,0-9-5.18l-.89.49h6.05L9.34,39l3,5.18v-1l-3,5.18,69-37.44H72.24q55.61,30.33,111.33,60.44Q234.47,99,285.36,126.6q33.58,18.24,67.17,36.47a6.06,6.06,0,0,0,9-5.18v-1l-3,5.19,69-37.44h-6.05l.89.49a6.06,6.06,0,0,0,9-5.18v-1l-3,5.18,68.95-37.44h-6.05l.89.49a6.06,6.06,0,0,0,9-5.18v-1l-3,5.18,68.95-37.44h-6l.89.49a6.06,6.06,0,0,0,9-5.18v-1l-3,5.18,69-37.44H631q34.89,19,69.85,37.92c6.79,3.69,12.85-6.67,6.05-10.36L644.83,4.74C642.55,3.5,640.3,2.2,638,1c-4.58-2.33-7.38-.26-11.28,1.86L591.32,22.1,562.08,38a6,6,0,0,0-3,5.19v1l9-5.18c-5.28-2.88-10.29,1.32-14.93,3.84l-23.87,13L492.23,75.9a6,6,0,0,0-3,5.18v1l9-5.18C493,74,488,78.18,483.36,80.7l-23.87,13-37.11,20.15a6,6,0,0,0-3,5.18v1l9-5.19c-5.28-2.87-10.29,1.33-14.93,3.85l-23.87,13-37.11,20.14a6,6,0,0,0-3,5.18v1l9-5.18c-23.24-12.68-46.53-25.25-69.79-37.89S242.34,89.61,219.12,77,172.8,51.86,149.65,39.28s-46.3-25.12-69.44-37.7C76-.71,73.06.09,69.18,2.2l-19,10.3L6.15,36.42,3.28,38a6,6,0,0,0-3,5.19v1a6,6,0,0,0,3,5.18L40.39,69.46l23.87,13c4.64,2.52,9.65,6.72,14.93,3.84l-9-5.18v1a6,6,0,0,0,3,5.18l37.11,20.13,23.87,13c4.65,2.52,9.65,6.72,14.93,3.84L140,119v1a6,6,0,0,0,3,5.18l37.11,20.14,23.87,13c4.64,2.52,9.65,6.72,14.93,3.85l-9-5.19v1a6,6,0,0,0,3,5.18l37.11,20.15,23.87,13c4.64,2.52,9.65,6.72,14.93,3.84l-9-5.18v1a6,6,0,0,0,3,5.18l44.43,24.12,22.53,12.23c2.94,1.6,5.35,2.41,8.73.72,1.38-.7,2.73-1.49,4.1-2.23l82.82-45,87.48-47.49L620.25,95.9l82.59-44.85,4.1-2.23C713.73,45.14,707.68,34.77,700.89,38.46Z"/><path class="cls-1" d="M638,380.23l-.9-.49a4.35,4.35,0,0,0-2.23-.71,4.52,4.52,0,0,0-2.39.1,6.81,6.81,0,0,0-3.59,2.76l-.6,1.44a6,6,0,0,0,0,3.19l.6,1.43A6.09,6.09,0,0,0,631,390.1l.89.49a4.41,4.41,0,0,0,2.23.71,4.56,4.56,0,0,0,2.4-.11,4.47,4.47,0,0,0,2-1.07,4.53,4.53,0,0,0,1.54-1.68l.61-1.44a6.16,6.16,0,0,0,0-3.19l-.61-1.43a6,6,0,0,0-2.15-2.15Z"/><path class="cls-1" d="M637.09,455.57c-23.27-12.63-46.41-25.57-69.85-37.91-6.82-3.59-12.9,6.76-6,10.37,23.43,12.34,46.57,25.27,69.85,37.91,6.79,3.68,12.85-6.68,6.05-10.37Z"/><path class="cls-1" d="M288.74,494l-.9-.49a4.35,4.35,0,0,0-2.23-.71,4.52,4.52,0,0,0-2.39.1,6.81,6.81,0,0,0-3.59,2.76l-.6,1.43a6,6,0,0,0,0,3.19l.6,1.44a6.09,6.09,0,0,0,2.16,2.15l.89.49a4.51,4.51,0,0,0,2.23.71,4.56,4.56,0,0,0,2.4-.11,4.47,4.47,0,0,0,2-1.07,4.53,4.53,0,0,0,1.54-1.68l.61-1.44a6.16,6.16,0,0,0,0-3.19l-.61-1.43a6,6,0,0,0-2.15-2.15Z"/><path class="cls-1" d="M149,418.15l-.9-.49a5.81,5.81,0,0,0-6.66.47,4.67,4.67,0,0,0-1.55,1.69l-.6,1.43a6,6,0,0,0,0,3.19l.6,1.43a6.12,6.12,0,0,0,2.16,2.16l.89.48a5.8,5.8,0,0,0,6.67-.46,4.64,4.64,0,0,0,1.54-1.69l.61-1.43a6.16,6.16,0,0,0,0-3.19l-.61-1.43a6,6,0,0,0-2.15-2.16Z"/><line class="cls-2" x1="704.81" y1="423.33" x2="704.81" y2="422.36"/><line class="cls-2" x1="704.81" y1="347.48" x2="704.81" y2="346.52"/><line class="cls-2" x1="704.81" y1="271.65" x2="704.81" y2="270.67"/><line class="cls-2" x1="704.81" y1="195.8" x2="704.81" y2="194.84"/><line class="cls-2" x1="704.81" y1="119.97" x2="704.81" y2="118.99"/><path class="cls-1" d="M431.41,499.17v-1a6.7,6.7,0,0,0-1.76-4.24,4.38,4.38,0,0,0-1.93-1.24,4.46,4.46,0,0,0-2.31-.52l-1.59.22a5.88,5.88,0,0,0-2.65,1.54l-.94,1.21a6,6,0,0,0-.82,3v1a4.51,4.51,0,0,0,.52,2.31,5.39,5.39,0,0,0,3.17,3.17,4.49,4.49,0,0,0,2.31.52L427,505a5.94,5.94,0,0,0,2.64-1.54l.94-1.21a6,6,0,0,0,.82-3Z"/><path class="cls-1" d="M431.41,271.65v-1a4.51,4.51,0,0,0-.52-2.31,6.18,6.18,0,0,0-5.48-3.69l-1.59.22a6,6,0,0,0-2.65,1.54l-.94,1.21a6,6,0,0,0-.82,3v1a4.46,4.46,0,0,0,.52,2.31,4.38,4.38,0,0,0,1.24,1.93,4.43,4.43,0,0,0,1.93,1.24,4.49,4.49,0,0,0,2.31.52l1.6-.21a6,6,0,0,0,2.64-1.55l.94-1.21a6,6,0,0,0,.82-3Z"/><path class="cls-1" d="M352.53,303.42l-.89.47c-3.95,2.08-3.86,8.26,0,10.36l.89.49-3-5.18v74.87l3-5.18-.89.49a6,6,0,0,0,0,10.36l.89.49-3-5.18v74.86l3-5.19-.89.49a6,6,0,0,0,0,10.36l.89.49-3-5.18v74.88l3-5.18-.89.48a6.05,6.05,0,0,0,0,10.37l.89.48-3-5.18V612l3-5.18-.89.49h6.05l-68.95-37.44,3,5.18V270.67a6.06,6.06,0,0,0-9-5.18l-.89.49h6l-68.95-37.44,3,5.18v-1a6.06,6.06,0,0,0-9-5.18l-.89.49a6,6,0,0,0,0,10.36l.89.49-3-5.19V308.6l3-5.18-.89.49a6,6,0,0,0,0,10.36l.89.49-3-5.18v74.85l3-5.18-.89.49a6,6,0,0,0,0,10.36l.89.49-3-5.18v74.87l3-5.18-.89.49c-3.86,2.11-3.95,8.28,0,10.36l.89.47-3-5.18v74.88l3-5.18-.89.47H218L149,494l3,5.18V194.84a6.06,6.06,0,0,0-9-5.18l-.89.49h6L79.19,152.71l3,5.18v-1a6.06,6.06,0,0,0-9-5.18l-.89.49a6,6,0,0,0,0,10.36l.89.49-3-5.18v74.87l3-5.18-.89.49c-3.86,2.11-3.95,8.28,0,10.36l.89.48-3-5.19V308.6l3-5.18-.89.47c-3.95,2.08-3.86,8.26,0,10.36l.89.49-3-5.18v74.87l3-5.18-.89.49a6,6,0,0,0,0,10.36l.89.49-3-5.18v74.86l3-5.19-.89.49h6.05L9.34,418.14l3,5.18V59.72c0-4.76.73-10.18,0-14.91a5.14,5.14,0,0,1,0-.68l-9,5.18L72.22,86.74q34.82,18.92,69.64,37.79t69.47,37.72q34.59,18.81,69.19,37.57t69,37.44c1,.55,2,1.11,3,1.65l-3-5.19V308.6c0,7.72,12,7.73,12,0V233.72a6,6,0,0,0-3-5.18c-23.39-12.31-46.49-25.21-69.72-37.83S242.56,165.57,219.41,153s-46.24-25.09-69.35-37.65-46-25-69-37.46L12.21,40.51,9.34,39a6.07,6.07,0,0,0-9,5.18V376.46c0,15.33-.7,30.86,0,46.18,0,.22,0,.45,0,.68a6,6,0,0,0,3,5.18l37.11,20.14,23.87,13c4.64,2.52,9.65,6.72,14.93,3.84a6,6,0,0,0,3-5.18V385.41a6,6,0,0,0-3-5.18l-.9-.49V390.1l.9-.49a6,6,0,0,0,3-5.18V309.56a6,6,0,0,0-3-5.18l-.9-.49v10.36l.9-.47a6,6,0,0,0,3-5.18V233.72a6,6,0,0,0-3-5.18l-.9-.47v10.36l.9-.48a6,6,0,0,0,3-5.19V157.89a6,6,0,0,0-3-5.18l-.9-.49v10.36l.9-.48-9-5.19v1a6,6,0,0,0,3,5.18l37.11,20.15,23.87,13c4.64,2.52,9.65,6.72,14.93,3.84l-9-5.18V499.17a6,6,0,0,0,3,5.18l37.11,20.13,23.87,13c4.68,2.54,9.59,6.67,14.93,3.86a6,6,0,0,0,3-5.18V461.24a6,6,0,0,0-3-5.18l-.9-.47V466l.9-.49a6,6,0,0,0,3-5.18V385.41a6,6,0,0,0-3-5.18l-.9-.49V390.1l.9-.49a6,6,0,0,0,3-5.18V309.58a6,6,0,0,0-3-5.19l-.9-.48v10.36l.9-.49a6,6,0,0,0,3-5.18V233.72a6,6,0,0,0-3-5.18l-.9-.48v10.36l.9-.49-9-5.18v1a6,6,0,0,0,3,5.19l37.11,20.14,23.87,13c4.64,2.52,9.65,6.72,14.93,3.84l-9-5.18V575a6,6,0,0,0,3,5.18l37.11,20.15,23.87,13c4.64,2.52,9.65,6.72,14.93,3.84a6,6,0,0,0,3-5.18V537.09a6,6,0,0,0-3-5.18l-.9-.49v10.37l.9-.49a6,6,0,0,0,3-5.18V461.24a6,6,0,0,0-3-5.18l-.9-.49v10.36l.9-.48a6,6,0,0,0,3-5.18V385.41a6,6,0,0,0-3-5.18l-.9-.49V390.1l.9-.49a6,6,0,0,0,3-5.18V309.56a6,6,0,0,0-3-5.18l-.9-.49v10.36l.9-.47C365.43,310.18,359.37,299.82,352.53,303.42Z"/><path class="cls-1" d="M143,265.49l-.89.49a6,6,0,0,0,0,10.36l.89.49-3-5.18v74.87l3-5.18-.89.47c-4,2.09-3.86,8.26,0,10.37l.89.48-3-5.18v74.88l3-5.18q-34.87,19-69.85,37.9l9,5.19V157.89l-9,5.18C96.41,175.71,119.55,188.64,143,201l-3-5.18v74.87c0,7.72,12,7.74,12,0V195.8a6,6,0,0,0-3-5.18c-23.44-12.34-46.57-25.27-69.85-37.91a6.06,6.06,0,0,0-9,5.18V460.27a6.07,6.07,0,0,0,9,5.18q34.92-19,69.85-37.91a6,6,0,0,0,3-5.18V347.48a6,6,0,0,0-3-5.18l-.9-.49v10.37l.9-.48a6,6,0,0,0,3-5.18V271.65a6,6,0,0,0-3-5.18l-.9-.49v10.36l.9-.49C155.82,272.16,149.77,261.79,143,265.49Z"/><path class="cls-1" d="M282.68,341.33l-.89.48a6.05,6.05,0,0,0,0,10.37l.89.48-3-5.18v74.88l3-5.18-.89.48c-3.86,2.11-4,8.29,0,10.37l.89.47-3-5.18v74.87l3-5.18q-34.89,19-69.85,37.93l9,5.18V233.72l-9,5.19q34.93,19,69.85,37.92l-3-5.18v74.86c0,7.72,12,7.73,12,0V271.65a6,6,0,0,0-3-5.18q-34.89-19-69.85-37.93a6.07,6.07,0,0,0-9,5.18v302.4a6.07,6.07,0,0,0,9,5.18q34.92-19,69.85-37.93a6,6,0,0,0,3-5.18V423.32a6,6,0,0,0-3-5.18l-.9-.48V428l.9-.49a6,6,0,0,0,3-5.18V347.48a6,6,0,0,0-3-5.18l-.9-.49v10.37l.9-.49C295.52,348,289.47,337.62,282.68,341.33Z"/><path class="cls-1" d="M638,304.38c-5.28-2.88-10.29,1.32-14.93,3.84l-23.87,13-37.11,20.15a6,6,0,0,0-3,5.18v1l9-5.18c-5.28-2.87-10.29,1.32-14.93,3.84l-23.87,13-37.11,20.14a6,6,0,0,0-3,5.18v1l9-5.18c-5.28-2.88-10.29,1.32-14.93,3.84l-23.87,13-37.11,20.15a6,6,0,0,0-3,5.18v1l9-5.18-.9-.49V428l.9-.49a6,6,0,0,0,3-5.18V347.48a6,6,0,0,0-3-5.18l-.9-.49v10.37l.9-.48a6,6,0,0,0,3-5.18V271.65a6,6,0,0,0-3-5.18l-.9-.49v10.36q37.74-20.56,75.54-41l83.85-45.51Q612.46,176,638,162.1l-9-5.19V309.56c0,7.72,12,7.73,12,0V156.91a6.06,6.06,0,0,0-9-5.18q-37.73,20.58-75.53,41-41.92,22.74-83.86,45.51Q447,252.12,421.49,266a6,6,0,0,0,0,10.36l.89.49-3-5.18v74.87l3-5.18-.89.47c-3.95,2.09-3.86,8.26,0,10.37l.89.48-3-5.18v74.88l3-5.18-.89.48a6.05,6.05,0,0,0,0,10.37l.89.49a6.07,6.07,0,0,0,9-5.19v-1l-3,5.18,68.95-37.44h-6.05l.89.49a6.06,6.06,0,0,0,9-5.18v-1l-3,5.18,68.95-37.43h-6l.89.48a6.06,6.06,0,0,0,9-5.18v-1l-3,5.18,69-37.44H631l.89.49C638.72,318.44,644.78,308.08,638,304.38Z"/><path class="cls-1" d="M707.84,39c-5.28-2.88-10.29,1.32-14.93,3.84L669,55.75,631.93,75.9a6,6,0,0,0-3,5.18v1l9-5.18c-5.28-2.88-10.29,1.32-14.93,3.84l-23.87,13-37.11,20.15a6,6,0,0,0-3,5.18v1l9-5.19c-5.28-2.87-10.29,1.33-14.93,3.85l-23.87,13-37.11,20.14a6,6,0,0,0-3,5.18v1l9-5.18C493,149.83,488,154,483.36,156.55l-23.87,13-37.11,20.15a6,6,0,0,0-3,5.18v1l9-5.18c-5.34-2.81-10.25,1.32-14.93,3.86l-23.87,13-37.11,20.14a6,6,0,0,0-3,5.18V565.09c0,15.34-.7,30.86,0,46.18,0,.23,0,.45,0,.68a6.06,6.06,0,0,0,9,5.18q34.92-19,69.85-37.92a6,6,0,0,0,3-5.19V499.17a6,6,0,0,0-3-5.18l-.9-.49v10.36q37.72-20.58,75.54-41l83.85-45.53q25.53-13.86,51.06-27.72l-9-5.18v75.84a6.07,6.07,0,0,0,9,5.18q34.92-19,69.85-37.91a6,6,0,0,0,3-5.18V347.48a6,6,0,0,0-3-5.18l-.9-.49v10.37l.9-.48a6,6,0,0,0,3-5.18V271.65a6,6,0,0,0-3-5.18l-.9-.49v10.36l.9-.49a6,6,0,0,0,3-5.18V195.8a6,6,0,0,0-3-5.18l-.9-.47v10.36l.9-.49a6,6,0,0,0,3-5.18V120a6,6,0,0,0-3-5.19l-.9-.48v10.36l.9-.49a6,6,0,0,0,3-5.18V44.13c0-7.72-12-7.73-12,0V119l3-5.18-.89.49a6,6,0,0,0,0,10.36l.89.49-3-5.18v74.87l3-5.18-.89.49c-3.86,2.1-3.95,8.28,0,10.36l.89.47-3-5.18v74.87l3-5.18-.89.49a6,6,0,0,0,0,10.36l.89.49-3-5.18v74.87l3-5.18-.89.47c-3.95,2.09-3.86,8.26,0,10.37l.89.48-3-5.18v74.88l3-5.18q-34.87,19-69.85,37.9l9,5.19V384.43a6.06,6.06,0,0,0-9-5.18q-37.73,20.58-75.53,41Q514.48,443,472.54,465.79,447,479.64,421.49,493.5a6,6,0,0,0,0,10.36l.89.49-3-5.18V574l3-5.18q-34.89,19-69.85,37.93l9,5.18V248.35c0-4.73.78-10.22,0-14.91a5.14,5.14,0,0,1,0-.68l-3,5.19,69-37.44h-6.05l.89.47a6.07,6.07,0,0,0,9-5.18v-1l-3,5.18,68.95-37.44h-6.05l.89.49a6.06,6.06,0,0,0,9-5.18v-1l-3,5.19,68.95-37.44h-6l.89.49a6.06,6.06,0,0,0,9-5.18v-1l-3,5.18,69-37.44H631l.89.49a6.06,6.06,0,0,0,9-5.18v-1l-3,5.18,69-37.44h-6.05l.89.49C708.57,53,714.63,42.65,707.84,39Z"/><path class="cls-1" d="M631,303.89l-75.12,40.79-82.2,44.62-51.34,27.88,9,5.18V346.52l-3,5.18,68.95-37.43h-6.05l.89.49a6.06,6.06,0,0,0,9-5.18v-1l-3,5.18,68.95-37.44h-6q34.88,19,69.85,37.91c6.79,3.69,12.85-6.67,6.05-10.36L575,270.18c-2.28-1.24-4.53-2.54-6.84-3.71-4.58-2.33-7.38-.26-11.28,1.86l-35.39,19.21-29.24,15.88a6,6,0,0,0-3,5.18v1l9-5.19c-5.28-2.87-10.29,1.33-14.93,3.85l-23.87,13-37.11,20.14a6,6,0,0,0-3,5.18v75.84a6.07,6.07,0,0,0,9,5.18l75.12-40.79,82.2-44.63,51.33-27.87C643.88,310.56,637.83,300.2,631,303.89Z"/><path class="cls-1" d="M631.93,227.58l-.89.49c-3.86,2.11-3.95,8.28,0,10.36l.89.48-3-5.19V308.6l3-5.18-.89.47h6.05l-69-37.42,3,5.18V194.84l-3,5.18,69-37.44H631l.89.49-3-5.18v74.87c0,7.73,12,7.74,12,0V157.89a6,6,0,0,0-3-5.18c-5.28-2.88-10.29,1.32-14.93,3.84l-23.87,13-37.11,20.15a6,6,0,0,0-3,5.18v76.81a6,6,0,0,0,3,5.18L599.19,297l23.87,12.95c4.68,2.54,9.59,6.67,14.93,3.86a6,6,0,0,0,3-5.18V233.72a6,6,0,0,0-3-5.18l-.9-.47v10.36l.9-.48C644.77,234.25,638.72,223.88,631.93,227.58Z"/></g></g></svg>